<?xml version="1.0" encoding="UTF-8" standalone="no"?>
<!DOCTYPE svg PUBLIC "-//W3C//DTD SVG 1.1//EN" "http://www.w3.org/Graphics/SVG/1.1/DTD/svg11.dtd">
<svg width="100%" height="100%" viewBox="0 0 72 72" version="1.1" xmlns="http://www.w3.org/2000/svg" xmlns:xlink="http://www.w3.org/1999/xlink" xml:space="preserve" xmlns:serif="http://www.serif.com/" style="fill-rule:evenodd;clip-rule:evenodd;stroke-linecap:round;stroke-linejoin:round;">
    <rect x="0" y="0" width="72" height="72" style="fill:rgb(255,244,208);"/>
    <g id="color">
        <path d="M36.221,29.316C33.916,25.028 27.881,23.792 22.74,26.554C17.6,29.317 16,34.735 18.305,39.023L19.499,37.744C21.31,35.821 22.124,35.441 24.347,33.999C24.347,33.999 30.441,29.465 36.221,29.316Z" style="fill:rgb(92,158,49);fill-rule:nonzero;"/>
        <path d="M37.285,28.249C34.946,27.368 32.335,28.088 30.362,29.895C29.328,30.842 28.469,32.087 27.916,33.556C26.306,37.83 27.891,42.382 31.456,43.725C31.67,38.133 33.757,32.592 37.285,28.249Z" style="fill:rgb(177,204,51);fill-rule:nonzero;"/>
        <path d="M54.853,19.908L55,18.438C52.695,14.67 48.39,14.565 43.564,15.579C40.119,16.921 37.661,19.578 36.772,22.498C36.258,24.187 36.268,25.965 36.916,27.627C36.916,27.627 43.785,19.119 54.853,19.908Z" style="fill:rgb(92,158,49);fill-rule:nonzero;"/>
        <path d="M61.703,34.872C63.202,29.178 58.884,23.105 52.057,21.308C51,21.03 49.944,20.87 48.909,20.821C43.265,20.551 38.25,23.552 36.983,28.363C45.614,27.805 54.465,30.136 61.703,34.872Z" style="fill:rgb(177,204,51);fill-rule:nonzero;"/>
        <path d="M12.279,23.744C12.279,23.744 24.817,22.795 35.626,26.367L36.406,26.809C36.406,26.809 38.647,19.96 33.104,17.078C26.465,13.211 16.71,12.56 12.279,23.744Z" style="fill:rgb(92,158,49);fill-rule:nonzero;"/>
    </g>
    <g id="line">
        <path d="M39.977,32.442C42.404,39.309 44.254,49.272 42.918,62.764" style="fill:none;fill-rule:nonzero;stroke:black;stroke-width:2px;"/>
        <path d="M36.221,28.316C33.916,24.028 27.881,22.792 22.74,25.554C17.6,28.317 15.3,34.033 17.605,38.321C19.417,36.398 21.469,34.696 23.692,33.254" style="fill:none;fill-rule:nonzero;stroke:black;stroke-width:2px;"/>
        <path d="M56.431,19.031C54.366,14.623 48.408,13.056 43.123,15.531C39.774,17.1 37.5,19.914 36.807,22.888C36.406,24.607 36.535,26.38 37.292,27.995" style="fill:none;fill-rule:nonzero;stroke:black;stroke-width:2px;"/>
        <path d="M37.285,28.249C34.946,27.368 32.335,28.088 30.362,29.895C29.328,30.842 28.469,32.087 27.916,33.556C26.306,37.83 27.891,42.382 31.456,43.725C31.67,38.133 33.757,32.592 37.285,28.249Z" style="fill:none;fill-rule:nonzero;stroke:black;stroke-width:2px;"/>
        <path d="M61.703,34.872C63.202,29.178 58.884,23.105 52.057,21.308C51,21.03 49.944,20.87 48.909,20.821C43.265,20.551 38.25,23.552 36.983,28.363C45.614,27.805 54.465,30.136 61.703,34.872Z" style="fill:none;fill-rule:nonzero;stroke:black;stroke-width:2px;"/>
        <path d="M34.187,19.011C34.099,18.926 34.01,18.841 33.918,18.758C32.142,17.134 29.758,15.811 27.036,15.139C20.184,13.447 13.532,17.083 12.279,22.836C14.57,22.588 16.886,22.545 19.192,22.699" style="fill:none;fill-rule:nonzero;stroke:black;stroke-width:2px;"/>
        <path d="M56.431,19.031L55,18.906" style="fill:none;fill-rule:nonzero;stroke:black;stroke-width:2px;"/>
    </g>
</svg>
